<svg class="svg-icon" style="width: 1em; height: 1em;vertical-align: middle;fill: currentColor;overflow: hidden;" viewBox="0 0 1024 1024" version="1.1" xmlns="http://www.w3.org/2000/svg"><path d="M763.73793 114.562199 297.429575 931.208641c-4.013407 6.987135-11.239995 10.904351-18.691711 10.904351-3.66139 0-7.355525-0.959861-10.728342-2.942005-10.264784-6.043646-13.814634-19.298532-7.867178-29.723975L726.482421 92.78522c5.948479-10.409071 19.075451-13.95892 29.388331-7.978718C766.183631 90.850148 769.670036 104.153128 763.73793 114.562199L763.73793 114.562199zM428.253132 320.039014 350.322226 459.193307c-25.582655 45.792952-73.453942 74.157977-124.891452 74.157977-25.198915 0-50.110281-6.875594-72.046896-19.938098-68.561515-40.74089-92.162026-131.383306-52.620451-201.911616l77.94728-139.234111c25.63075-45.729507 73.453942-74.157977 124.875079-74.157977 25.215288 0 50.173726 6.92369 72.031547 19.938098C444.177823 158.836565 467.794707 249.430886 428.253132 320.039014L428.253132 320.039014zM353.807606 155.574265c-15.33322-9.129938-32.66598-13.926174-50.221822-13.926174-35.895535 0-69.37709 19.970844-87.412862 52.108798L138.225643 332.894809c-28.02938 50.078559-11.400654 114.210181 36.983309 143.038764 15.31787 9.06547 32.682353 13.942547 50.221822 13.942547 35.94363 0 69.456908-19.954471 87.429235-52.108798l77.930907-139.201365C418.819273 248.551866 402.190547 184.41922 353.807606 155.574265L353.807606 155.574265zM923.277506 712.684672l-66.802452 119.550817c-5.884011 10.472516-19.059078 14.054087-29.340235 8.218172-10.360975-5.932106-13.990642-19.170618-8.170077-29.627784l66.850547-119.582539c28.013007-50.142004 11.384281-114.450658-37.046754-143.342686-23.088858-13.751189-50.01409-17.507746-75.756381-10.520611-26.253944 7.14677-48.223305 24.431435-61.830207 48.814776l-77.930907 139.457192c-28.04473 50.110281-11.416004 114.38619 36.966936 143.310963 12.999059 7.722892 27.693736 12.120039 43.682895 13.175067 11.879562 0.783853 20.833491 11.160177 20.098757 23.12058-0.76748 11.528568-10.216689 20.386306-21.473057 20.386306-0.463558 0-0.943488 0-1.407046-0.064468-22.800285-1.455141-43.922349-7.91425-62.7256-19.155269-68.561515-40.85243-92.145653-131.606387-52.604078-202.24726l77.882811-139.457192c19.379373-34.601052 50.701752-59.240219 88.196715-69.393463 36.983309-10.057053 75.628468-4.701069 108.774379 15.110139C939.155125 551.274492 962.802708 642.013099 923.277506 712.684672L923.277506 712.684672z"  /></svg>