<svg class="svg-icon" style="width: 1em; height: 1em;vertical-align: middle;fill: currentColor;overflow: hidden;" viewBox="0 0 1024 1024" version="1.1" xmlns="http://www.w3.org/2000/svg"><path d="M391.24 181.648c-49.52 0-89.824 40.296-89.824 89.824 0 49.52 40.296 89.824 89.824 89.824s89.824-40.296 89.824-89.824-40.296-89.824-89.824-89.824z m600.832 419.176c28.72 0 40.864 36.696 17.976 53.888L528.992 1016c-10.656 8-25.312 8-35.968 0L11.968 654.72c-22.96-17.248-10.64-53.888 17.984-53.888h151.696V29.944A29.944 29.944 0 0 1 211.6 0h598.832a29.944 29.944 0 0 1 29.944 29.944v570.88h151.704zM391.24 301.408a29.976 29.976 0 0 1-29.936-29.936 29.976 29.976 0 0 1 29.936-29.944 29.976 29.976 0 0 1 29.944 29.944 29.976 29.976 0 0 1-29.944 29.936z m239.536 119.768c49.528 0 89.824 40.296 89.824 89.824s-40.296 89.824-89.824 89.824-89.824-40.296-89.824-89.824c0-49.52 40.296-89.824 89.824-89.824z m0 119.76a29.976 29.976 0 0 0 29.944-29.936 29.976 29.976 0 0 0-29.944-29.936 29.976 29.976 0 0 0-29.944 29.936 29.976 29.976 0 0 0 29.944 29.944z m16.608-354.264a29.936 29.936 0 0 1 8.304 41.52L416.152 587.496a29.944 29.944 0 1 1-49.824-33.216l239.536-359.304a29.944 29.944 0 0 1 41.52-8.304z m-136.376 767.944l391.336-293.904h-91.92a29.944 29.944 0 0 1-29.944-29.944V59.888H241.536v570.88a29.944 29.944 0 0 1-29.944 29.944H119.68l391.336 293.904z" fill="#20A0FF" /></svg>