<svg class="svg-icon" style="width: 1em; height: 1em;vertical-align: middle;fill: currentColor;overflow: hidden;" viewBox="0 0 1024 1024" version="1.1" xmlns="http://www.w3.org/2000/svg"><path d="M410.426 318.398c0 56.937-46.444 103.38-103.38 103.38s-103.381-46.443-103.381-103.38 46.444-103.38 103.38-103.38 103.38 46.443 103.38 103.38z m-68.978 0c0-19.093-15.481-34.403-34.403-34.403s-34.403 15.482-34.403 34.403c0 18.922 15.482 34.403 34.403 34.403 18.922 0.172 34.403-15.31 34.403-34.403z"  /><path d="M616.155 183.711l312.377 317.194c19.954 19.438 31.479 47.304 31.479 76.718 0 29.243-11.353 56.937-31.135 76.03L645.57 929.565c-39.22 38.015-113.873 38.187-153.265-0.172L140.191 585.02c-60.72-59-76.202-82.567-76.202-162.553V270.922c0-142.944 29.07-206.76 201.257-206.76h142.083c87.384-0.173 138.3 50.055 208.826 119.55z m-18.578 696.313l283.307-275.738c6.537-6.365 10.15-15.998 10.15-26.663 0-10.837-3.785-20.813-11.182-27.866l-283.48-288.812-28.725-28.038c-70.182-69.322-103.725-99.94-160.49-99.94H265.074c-123.334 0-132.28 19.093-132.28 137.783v151.545c0 54.528 1.549 61.065 55.39 113.185l352.112 344.544c6.88 6.709 17.202 10.493 28.555 10.493 11.353 0 21.845-3.784 28.726-10.493z"  /></svg>