<svg class="svg-icon" style="width: 1em;height: 1em;vertical-align: middle;fill: currentColor;overflow: hidden;" viewBox="0 0 1024 1024" version="1.1" xmlns="http://www.w3.org/2000/svg"><path d="M699.9 411.2H318.8c-13.8 0-25 11.2-25 25s11.2 25 25 25h381.1c13.8 0 25-11.2 25-25s-11.2-25-25-25zM496.6 553.9H318.8c-13.8 0-25 11.2-25 25s11.2 25 25 25h177.8c13.8 0 25-11.2 25-25s-11.2-25-25-25z"  /><path d="M768.7 223.8h-95.6v-16.1c0-25-20.3-45.3-45.3-45.3H396.2c-25 0-45.3 20.3-45.3 45.3v16.1h-95.6c-43.2 0-78.3 33.5-78.3 74.7v479.1c0 41.2 35.1 74.7 78.3 74.7h182v-50h-182c-15.6 0-28.3-11.1-28.3-24.7V298.5c0-13.6 12.7-24.7 28.3-24.7h96.2c3.5 21.5 22.2 38 44.7 38h231.6c22.5 0 41.2-16.5 44.7-38h96.2c15.6 0 28.3 11.1 28.3 24.7v283.2h50V298.5c0-41.2-35.1-74.7-78.3-74.7z m-145.6 38H400.9v-49.5h222.3v49.5z"  /><path d="M510.5 861.7c-5.6 0-11.2-1.9-15.7-5.9-10-8.7-11.1-23.8-2.4-33.9l77.2-89.2c7.3-8.5 19.5-10.7 29.4-5.5l93.1 49.3 101.1-141.9c7.7-10.8 22.7-13.3 33.5-5.6 10.8 7.7 13.3 22.7 5.6 33.5L719 821.6c-7 9.8-20.1 12.9-30.8 7.3l-94.8-50.2-64.7 74.8c-4.8 5.4-11.5 8.2-18.2 8.2z"  /></svg>